<?xml version="1.0" encoding="utf-8"?>
<!-- Generator: Adobe Illustrator 22.0.1, SVG Export Plug-In . SVG Version: 6.00 Build 0)  -->
<svg version="1.1" id="Layer_1" xmlns="http://www.w3.org/2000/svg" xmlns:xlink="http://www.w3.org/1999/xlink" x="0px" y="0px"
	 viewBox="0 0 112.1 112.1" style="enable-background:new 0 0 112.1 112.1;" xml:space="preserve">
<style type="text/css">
	.st0{fill:#303030;}
</style>
<g>
	<g>
		<path class="st0" d="M56,0C25.1,0,0,25.1,0,56c0,30.9,25.1,56,56,56s56-25.1,56-56C112.1,25.1,87,0,56,0z M60.3,103.4v-3.8
			c0-2.3-1.9-4.2-4.2-4.2c-2.3,0-4.2,1.9-4.2,4.2v3.8c-22.9-2-41.2-20.4-43.2-43.3h3.6c2.3,0,4.2-1.9,4.2-4.2c0-2.3-1.9-4.2-4.2-4.2
			H8.7c2.1-22.8,20.3-41,43.1-43v3.5c0,2.3,1.9,4.2,4.2,4.2c2.3,0,4.2-1.9,4.2-4.2V8.7c22.8,2,41.1,20.2,43.1,43h-3.6
			c-2.3,0-4.2,1.9-4.2,4.2c0,2.3,1.9,4.2,4.2,4.2h3.6C101.5,83.1,83.2,101.4,60.3,103.4z"/>
		<path class="st0" d="M81.2,28.7L56.2,55c0,0-0.1,0-0.1,0c-0.3,0-0.6,0-0.9,0.1l-21-15.8c-1.4-1-3.4-0.8-4.4,0.6
			c-1.1,1.4-0.8,3.4,0.6,4.4l21,15.8c0.2,2.4,2.2,4.4,4.7,4.4c2.6,0,4.8-2.1,4.8-4.8c0-0.1,0-0.2,0-0.4l25-26.3
			c1.2-1.3,1.2-3.3-0.1-4.5C84.5,27.4,82.4,27.5,81.2,28.7z"/>
	</g>
</g>
</svg>
