<svg id="Layer_1" data-name="Layer 1" xmlns="http://www.w3.org/2000/svg" viewBox="0 0 666 89.72"><defs><style>.cls-1{fill:#fff;}.cls-2{fill:#00d8b1;}</style></defs><title>logoArtboard 1 copy 2</title><path class="cls-1" d="M156.85,78.87a29.6,29.6,0,0,1-13.64-3,21,21,0,0,1-8.9-8.47,26.5,26.5,0,0,1-3.14-13.31,26.57,26.57,0,0,1,3.14-13.32,21.11,21.11,0,0,1,8.8-8.46,27.63,27.63,0,0,1,13-2.95,26.11,26.11,0,0,1,12.79,2.9,19.71,19.71,0,0,1,8,8A24,24,0,0,1,179.68,52q0,1.71-.09,3.42c-.07,1.14-.17,2.1-.29,2.86H141.64V49.57h30.52l-7.7,3c0-3.81-.68-6.72-2-8.75a7.1,7.1,0,0,0-6.33-3,9.11,9.11,0,0,0-5.18,1.42,8.66,8.66,0,0,0-3.24,4.47,23.68,23.68,0,0,0-1.09,7.8A19.66,19.66,0,0,0,147.81,62a8.44,8.44,0,0,0,3.52,4.18,11.18,11.18,0,0,0,5.52,1.28A10.22,10.22,0,0,0,162.6,66a8.47,8.47,0,0,0,3.19-4l12.94,4.28a15,15,0,0,1-4.62,6.9,22.09,22.09,0,0,1-7.8,4.23A31.23,31.23,0,0,1,156.85,78.87Z"/><path class="cls-1" d="M189.67,77.92V15.14h30.52q11.61.09,17.13,4.42t5.51,12.51a14.09,14.09,0,0,1-3.13,9.18q-3.15,3.86-9.61,4.9v.09q7.23,1,10.79,5A14.24,14.24,0,0,1,244.45,61q0,8.09-5.7,12.51t-17.12,4.43Zm15.79-37.1h11.88q8.74,0,8.75-6.85t-8.75-6.85H205.46Zm0,25.59h13.4q4.47,0,6.67-1.81a6.43,6.43,0,0,0,2.18-5.23,6.17,6.17,0,0,0-2.18-5.09q-2.21-1.76-6.67-1.76h-13.4Z"/><path class="cls-1" d="M261.67,24.84c-3.3,0-5.69-.62-7.19-1.85s-2.23-3.19-2.23-5.85.75-4.71,2.23-6,3.89-1.85,7.19-1.85,5.61.61,7.13,1.85,2.29,3.22,2.29,6-.77,4.61-2.29,5.85S264.9,24.84,261.67,24.84Zm8.09,5.52V77.92H253.59V30.36Z"/><path class="cls-1" d="M311.79,78.87a15.88,15.88,0,0,1-8.22-2.1A17,17,0,0,1,297.71,71a21.29,21.29,0,0,1-2.94-8.32l1.52-2-.86,17.22H281.27V10.19h16.17v35.1L295.91,43a18.7,18.7,0,0,1,5.42-9.75c2.72-2.57,6.41-3.85,11-3.85a17,17,0,0,1,9.84,2.95A19.31,19.31,0,0,1,329,40.87a33.52,33.52,0,0,1,2.43,13.46,32.32,32.32,0,0,1-2.47,13.22A19.28,19.28,0,0,1,322.07,76,18.2,18.2,0,0,1,311.79,78.87ZM306.18,67a7.84,7.84,0,0,0,6.57-3.09q2.37-3.09,2.37-9.75t-2.37-9.75a7.84,7.84,0,0,0-6.57-3.09,7.23,7.23,0,0,0-4.7,1.57,9.87,9.87,0,0,0-3,4.42,20.21,20.21,0,0,0-1,6.94,20.27,20.27,0,0,0,1,7,9.07,9.07,0,0,0,3,4.32A7.6,7.6,0,0,0,306.18,67Z"/><path class="cls-1" d="M356.87,10.19V61.75a7.34,7.34,0,0,0,1.05,4.47,4.21,4.21,0,0,0,3.52,1.33,12.24,12.24,0,0,0,2.38-.19q.94-.19,2.28-.57l-1,9.7a15.65,15.65,0,0,1-4.48,1.71,23.23,23.23,0,0,1-5.42.67q-7.61,0-11-3.52T340.7,63.84V10.19Z"/><path class="cls-1" d="M380.08,24.84q-4.95,0-7.18-1.85t-2.23-5.85q0-4.1,2.23-6c1.49-1.24,3.88-1.85,7.18-1.85s5.61.61,7.14,1.85,2.28,3.22,2.28,6-.77,4.61-2.28,5.85S383.32,24.84,380.08,24.84Zm8.09,5.52V77.92H372V30.36Z"/><path class="cls-1" d="M422.31,29.41a28.44,28.44,0,0,1,13.18,2.9,21.08,21.08,0,0,1,8.84,8.46,26.54,26.54,0,0,1,3.19,13.37,26.5,26.5,0,0,1-3.19,13.36A21.1,21.1,0,0,1,435.49,76a31,31,0,0,1-26.2,0,21,21,0,0,1-8.9-8.47,26.4,26.4,0,0,1-3.19-13.36,26.43,26.43,0,0,1,3.19-13.37,21,21,0,0,1,8.9-8.46A28.23,28.23,0,0,1,422.31,29.41Zm0,11.51a7.65,7.65,0,0,0-7.8,5.61,23,23,0,0,0-1.05,7.61,22.69,22.69,0,0,0,1.05,7.56A8.55,8.55,0,0,0,417.56,66a8.13,8.13,0,0,0,4.75,1.38A8.36,8.36,0,0,0,427.17,66a8.53,8.53,0,0,0,3-4.28,23,23,0,0,0,1-7.56,23.34,23.34,0,0,0-1-7.61,8.24,8.24,0,0,0-3-4.28A8.56,8.56,0,0,0,422.31,40.92Z"/><path class="cls-1" d="M490.32,30.36V41.87H451.8V30.36ZM476.15,15.23V61q0,3.44,1.66,4.9a6.69,6.69,0,0,0,4.61,1.48,13.56,13.56,0,0,0,3.95-.52,9.37,9.37,0,0,0,3-1.58l1.71,10a18.31,18.31,0,0,1-6,2.67,29.34,29.34,0,0,1-7.43,1,26.09,26.09,0,0,1-9.36-1.52,12.26,12.26,0,0,1-6.09-4.86A16.6,16.6,0,0,1,460,63.65V19.7Z"/><path class="cls-1" d="M521,78.87a29.6,29.6,0,0,1-13.64-3,21,21,0,0,1-8.9-8.47,26.4,26.4,0,0,1-3.14-13.31,26.46,26.46,0,0,1,3.14-13.32,21.14,21.14,0,0,1,8.79-8.46,27.7,27.7,0,0,1,13-2.95,26.11,26.11,0,0,1,12.79,2.9,19.71,19.71,0,0,1,8,8A24,24,0,0,1,543.87,52q0,1.71-.09,3.42c-.07,1.14-.17,2.1-.29,2.86H505.82V49.57h30.53l-7.7,3c0-3.81-.68-6.72-2-8.75a7.1,7.1,0,0,0-6.33-3,9.11,9.11,0,0,0-5.18,1.42,8.66,8.66,0,0,0-3.24,4.47,23.42,23.42,0,0,0-1.09,7.8A19.66,19.66,0,0,0,512,62a8.44,8.44,0,0,0,3.52,4.18A11.18,11.18,0,0,0,521,67.45,10.22,10.22,0,0,0,526.79,66,8.47,8.47,0,0,0,530,62l12.94,4.28a15,15,0,0,1-4.62,6.9,22.09,22.09,0,0,1-7.8,4.23A31.23,31.23,0,0,1,521,78.87Z"/><path class="cls-1" d="M569.08,10.19V77.92H552.91V10.19Zm36,20.17L582.3,54.71l-3,.86-13.6,15.21-.09-16.55,21.59-23.87ZM584.77,44.62l21.4,33.3H588.29L574.21,54.14Z"/><path class="cls-1" d="M638.22,47.76a7.34,7.34,0,0,0-1.85-5.28,6.59,6.59,0,0,0-5-1.94A9.14,9.14,0,0,0,626,42.1q-2.24,1.57-3.09,5.57l-13.7-3.24a17,17,0,0,1,7-10.93q5.71-4.09,16.08-4.09a30.77,30.77,0,0,1,11.84,2,16,16,0,0,1,7.52,6.09,18,18,0,0,1,2.61,9.94v17.4q0,3.72,3.33,3.72a8.09,8.09,0,0,0,2.76-.39l-1,9.23a16.27,16.27,0,0,1-6.94,1.33,16.8,16.8,0,0,1-6.56-1.19A9.64,9.64,0,0,1,641.46,74a10.83,10.83,0,0,1-1.62-6.14v-.57l1.81-.66a10,10,0,0,1-2.43,6.85A14.47,14.47,0,0,1,633,77.54a24.65,24.65,0,0,1-8,1.33,21.82,21.82,0,0,1-8.47-1.52,12.24,12.24,0,0,1-5.56-4.43,12.56,12.56,0,0,1-2-7.18A12.12,12.12,0,0,1,612,57.23q3.09-3.37,9.75-4.71l18-3.71-.1,8.56-9.13,1.9a10,10,0,0,0-4.23,1.67,3.93,3.93,0,0,0-1.38,3.28,3.54,3.54,0,0,0,1.52,3.14,6.19,6.19,0,0,0,3.61,1,10,10,0,0,0,3.1-.47,7.57,7.57,0,0,0,2.61-1.47,7.16,7.16,0,0,0,1.81-2.53,9,9,0,0,0,.66-3.61Z"/><path class="cls-2" d="M47.37,86.89c.69.54,1.34,1.12,2,1.68a91.4,91.4,0,0,0-20.66-1.8,116,116,0,0,0-23,2.83C2.27,90.38,0,88.54,0,84.94V19.39c0-3.19,1.62-4.8,4.78-4.82,2.5,0,2.5,0,2.5,2.49q0,24.74,0,49.48a11,11,0,0,0,4.3,9.29A10.28,10.28,0,0,0,17.62,78a72.36,72.36,0,0,1,11.74,1.13C35.91,80.43,42.06,82.7,47.37,86.89Z"/><path class="cls-2" d="M54.6,16.73a5.38,5.38,0,0,1,.94,3q0,32.55,0,65.1a3.39,3.39,0,0,1-.09.52A40.63,40.63,0,0,0,45.76,78a52.25,52.25,0,0,0-17.89-5.74,71.47,71.47,0,0,0-9.25-.72c-3.23,0-4.83-1.72-4.83-4.94V4.93c0-3.4,1.77-5,5.15-4.91A58,58,0,0,1,36.18,2.87,34.77,34.77,0,0,1,54.6,16.73Z"/><path class="cls-2" d="M77.2,75.48a41.57,41.57,0,0,0-14.21,9c-.24.24-.49.47-1,.89V83.92C62,63.21,62.1,42.5,62,21.8a11.36,11.36,0,0,1,2.82-7.6C70.61,7,78.33,3.21,87.15,1.28A64.6,64.6,0,0,1,99.23,0c2.79-.07,4.56,1.76,4.56,4.7q0,24.3,0,48.58c0,4.48,0,8.95,0,13.44,0,3.07-1.64,4.76-4.72,4.81A62.12,62.12,0,0,0,77.2,75.48Z"/><path class="cls-2" d="M117.58,86.49c-1.4,3-2.77,3.73-6.08,3A112.57,112.57,0,0,0,80.39,87,69.1,69.1,0,0,0,68,88.87a29.68,29.68,0,0,1,6.21-4.68,46.2,46.2,0,0,1,16.75-5.51c3-.45,5.94-.52,8.91-.68a10.65,10.65,0,0,0,10.07-7.93,12.58,12.58,0,0,0,.4-3.76q0-25.2,0-50.39c0-1.1.22-1.52,1.35-1.37.88.12,1.78-.05,2.64.12a4.54,4.54,0,0,1,3.3,3.14c-.45,0-.55-.35-.69-.65a4,4,0,0,0-3.84-2.23c-2.48,0-2.48,0-2.48,2.37,0,16.61-.08,33.21.05,49.81A11.4,11.4,0,0,1,99.43,78.37,52.75,52.75,0,0,0,77.14,83a34.83,34.83,0,0,0-8.09,5.27A56.6,56.6,0,0,1,76.88,87,106.69,106.69,0,0,1,91,86.53a135.47,135.47,0,0,1,21.13,2.74c2.41.48,3.55-.09,4.8-2.14C117.05,86.85,117.13,86.46,117.58,86.49Z"/><path class="cls-2" d="M117.58,17.81V86.49c-1.4,3-2.77,3.73-6.08,3A112.57,112.57,0,0,0,80.39,87,69.1,69.1,0,0,0,68,88.87a29.68,29.68,0,0,1,6.21-4.68,46.2,46.2,0,0,1,16.75-5.51c3-.45,5.94-.52,8.91-.68a10.65,10.65,0,0,0,10.07-7.93,12.58,12.58,0,0,0,.4-3.76q0-25.2,0-50.39c0-1.1.22-1.52,1.35-1.37.88.12,1.78-.05,2.64.12A4.54,4.54,0,0,1,117.58,17.81Z"/><path class="cls-2" d="M55.54,19.74q0,32.55,0,65.1a3.39,3.39,0,0,1-.09.52A40.63,40.63,0,0,0,45.76,78a52.25,52.25,0,0,0-17.89-5.74,71.47,71.47,0,0,0-9.25-.72c-3.23,0-4.83-1.72-4.83-4.94V4.93c0-3.4,1.77-5,5.15-4.91A58,58,0,0,1,36.18,2.87,34.77,34.77,0,0,1,54.6,16.73,5.38,5.38,0,0,1,55.54,19.74Z"/><path class="cls-2" d="M103.8,53.28c0,4.48,0,8.95,0,13.44,0,3.07-1.64,4.76-4.72,4.81a62.12,62.12,0,0,0-21.87,4,41.57,41.57,0,0,0-14.21,9c-.24.24-.49.47-1,.89V83.92C62,63.21,62.1,42.5,62,21.8a11.36,11.36,0,0,1,2.82-7.6C70.61,7,78.33,3.21,87.15,1.28A64.6,64.6,0,0,1,99.23,0c2.79-.07,4.56,1.76,4.56,4.7Q103.81,29,103.8,53.28Z"/><path class="cls-2" d="M49.37,88.57a91.4,91.4,0,0,0-20.66-1.8,116,116,0,0,0-23,2.83C2.27,90.38,0,88.54,0,84.94V19.39c0-3.19,1.62-4.8,4.78-4.82,2.5,0,2.5,0,2.5,2.49q0,24.74,0,49.48a11,11,0,0,0,4.3,9.29A10.28,10.28,0,0,0,17.62,78a72.36,72.36,0,0,1,11.74,1.13c6.55,1.31,12.7,3.58,18,7.77C48.06,87.43,48.71,88,49.37,88.57Z"/></svg>