<svg id="Layer_1" data-name="Layer 1" xmlns="http://www.w3.org/2000/svg" xmlns:xlink="http://www.w3.org/1999/xlink" viewBox="0 0 666 89.72"><defs><style>.cls-1{fill:#fff;}.cls-2{fill:url(#linear-gradient);}.cls-3{fill:url(#linear-gradient-2);}.cls-4{fill:url(#linear-gradient-3);}.cls-5{fill:url(#linear-gradient-4);}</style><linearGradient id="linear-gradient" x1="93.49" y1="6.29" x2="92.49" y2="121.29" gradientUnits="userSpaceOnUse"><stop offset="0" stop-color="#00d8b1"/><stop offset="1" stop-color="#00a89d"/></linearGradient><linearGradient id="linear-gradient-2" x1="35.01" y1="5.78" x2="34.01" y2="120.78" xlink:href="#linear-gradient"/><linearGradient id="linear-gradient-3" x1="83.22" y1="6.2" x2="82.22" y2="121.2" xlink:href="#linear-gradient"/><linearGradient id="linear-gradient-4" x1="25.11" y1="5.7" x2="24.11" y2="120.7" xlink:href="#linear-gradient"/></defs><title>dhdhArtboard 1 copy 3</title><path class="cls-1" d="M156.85,78.87a29.6,29.6,0,0,1-13.64-3,21,21,0,0,1-8.9-8.47,26.5,26.5,0,0,1-3.14-13.31,26.57,26.57,0,0,1,3.14-13.32,21.11,21.11,0,0,1,8.8-8.46,27.63,27.63,0,0,1,13-2.95,26.11,26.11,0,0,1,12.79,2.9,19.71,19.71,0,0,1,8,8A24,24,0,0,1,179.68,52q0,1.71-.09,3.42c-.07,1.14-.17,2.1-.29,2.86H141.64V49.57h30.52l-7.7,3c0-3.81-.68-6.72-2-8.75a7.1,7.1,0,0,0-6.33-3,9.11,9.11,0,0,0-5.18,1.42,8.66,8.66,0,0,0-3.24,4.47,23.68,23.68,0,0,0-1.09,7.8A19.66,19.66,0,0,0,147.81,62a8.44,8.44,0,0,0,3.52,4.18,11.18,11.18,0,0,0,5.52,1.28A10.22,10.22,0,0,0,162.6,66a8.47,8.47,0,0,0,3.19-4l12.94,4.28a15,15,0,0,1-4.62,6.9,22.09,22.09,0,0,1-7.8,4.23A31.23,31.23,0,0,1,156.85,78.87Z"/><path class="cls-1" d="M189.67,77.92V15.14h30.52q11.61.09,17.13,4.42t5.51,12.51a14.09,14.09,0,0,1-3.13,9.18q-3.15,3.86-9.61,4.9v.09q7.23,1,10.79,5A14.24,14.24,0,0,1,244.45,61q0,8.09-5.7,12.51t-17.12,4.43Zm15.79-37.1h11.88q8.74,0,8.75-6.85t-8.75-6.85H205.46Zm0,25.59h13.4q4.47,0,6.67-1.81a6.43,6.43,0,0,0,2.18-5.23,6.17,6.17,0,0,0-2.18-5.09q-2.21-1.76-6.67-1.76h-13.4Z"/><path class="cls-1" d="M261.67,24.84c-3.3,0-5.69-.62-7.19-1.85s-2.23-3.19-2.23-5.85.75-4.71,2.23-6,3.89-1.85,7.19-1.85,5.61.61,7.13,1.85,2.29,3.22,2.29,6-.77,4.61-2.29,5.85S264.9,24.84,261.67,24.84Zm8.09,5.52V77.92H253.59V30.36Z"/><path class="cls-1" d="M311.79,78.87a15.88,15.88,0,0,1-8.22-2.1A17,17,0,0,1,297.71,71a21.29,21.29,0,0,1-2.94-8.32l1.52-2-.86,17.22H281.27V10.19h16.17v35.1L295.91,43a18.7,18.7,0,0,1,5.42-9.75c2.72-2.57,6.41-3.85,11-3.85a17,17,0,0,1,9.84,2.95A19.31,19.31,0,0,1,329,40.87a33.52,33.52,0,0,1,2.43,13.46,32.32,32.32,0,0,1-2.47,13.22A19.28,19.28,0,0,1,322.07,76,18.2,18.2,0,0,1,311.79,78.87ZM306.18,67a7.84,7.84,0,0,0,6.57-3.09q2.37-3.09,2.37-9.75t-2.37-9.75a7.84,7.84,0,0,0-6.57-3.09,7.23,7.23,0,0,0-4.7,1.57,9.87,9.87,0,0,0-3,4.42,20.21,20.21,0,0,0-1,6.94,20.27,20.27,0,0,0,1,7,9.07,9.07,0,0,0,3,4.32A7.6,7.6,0,0,0,306.18,67Z"/><path class="cls-1" d="M356.87,10.19V61.75a7.34,7.34,0,0,0,1.05,4.47,4.21,4.21,0,0,0,3.52,1.33,12.24,12.24,0,0,0,2.38-.19q.94-.19,2.28-.57l-1,9.7a15.65,15.65,0,0,1-4.48,1.71,23.23,23.23,0,0,1-5.42.67q-7.61,0-11-3.52T340.7,63.84V10.19Z"/><path class="cls-1" d="M380.08,24.84q-4.95,0-7.18-1.85t-2.23-5.85q0-4.1,2.23-6c1.49-1.24,3.88-1.85,7.18-1.85s5.61.61,7.14,1.85,2.28,3.22,2.28,6-.77,4.61-2.28,5.85S383.32,24.84,380.08,24.84Zm8.09,5.52V77.92H372V30.36Z"/><path class="cls-1" d="M422.31,29.41a28.44,28.44,0,0,1,13.18,2.9,21.08,21.08,0,0,1,8.84,8.46,26.54,26.54,0,0,1,3.19,13.37,26.5,26.5,0,0,1-3.19,13.36A21.1,21.1,0,0,1,435.49,76a31,31,0,0,1-26.2,0,21,21,0,0,1-8.9-8.47,26.4,26.4,0,0,1-3.19-13.36,26.43,26.43,0,0,1,3.19-13.37,21,21,0,0,1,8.9-8.46A28.23,28.23,0,0,1,422.31,29.41Zm0,11.51a7.65,7.65,0,0,0-7.8,5.61,23,23,0,0,0-1.05,7.61,22.69,22.69,0,0,0,1.05,7.56A8.55,8.55,0,0,0,417.56,66a8.13,8.13,0,0,0,4.75,1.38A8.36,8.36,0,0,0,427.17,66a8.53,8.53,0,0,0,3-4.28,23,23,0,0,0,1-7.56,23.34,23.34,0,0,0-1-7.61,8.24,8.24,0,0,0-3-4.28A8.56,8.56,0,0,0,422.31,40.92Z"/><path class="cls-1" d="M490.32,30.36V41.87H451.8V30.36ZM476.15,15.23V61q0,3.44,1.66,4.9a6.69,6.69,0,0,0,4.61,1.48,13.56,13.56,0,0,0,3.95-.52,9.37,9.37,0,0,0,3-1.58l1.71,10a18.31,18.31,0,0,1-6,2.67,29.34,29.34,0,0,1-7.43,1,26.09,26.09,0,0,1-9.36-1.52,12.26,12.26,0,0,1-6.09-4.86A16.6,16.6,0,0,1,460,63.65V19.7Z"/><path class="cls-1" d="M521,78.87a29.6,29.6,0,0,1-13.64-3,21,21,0,0,1-8.9-8.47,26.4,26.4,0,0,1-3.14-13.31,26.46,26.46,0,0,1,3.14-13.32,21.14,21.14,0,0,1,8.79-8.46,27.7,27.7,0,0,1,13-2.95,26.11,26.11,0,0,1,12.79,2.9,19.71,19.71,0,0,1,8,8A24,24,0,0,1,543.87,52q0,1.71-.09,3.42c-.07,1.14-.17,2.1-.29,2.86H505.82V49.57h30.53l-7.7,3c0-3.81-.68-6.72-2-8.75a7.1,7.1,0,0,0-6.33-3,9.11,9.11,0,0,0-5.18,1.42,8.66,8.66,0,0,0-3.24,4.47,23.42,23.42,0,0,0-1.09,7.8A19.66,19.66,0,0,0,512,62a8.44,8.44,0,0,0,3.52,4.18A11.18,11.18,0,0,0,521,67.45,10.22,10.22,0,0,0,526.79,66,8.47,8.47,0,0,0,530,62l12.94,4.28a15,15,0,0,1-4.62,6.9,22.09,22.09,0,0,1-7.8,4.23A31.23,31.23,0,0,1,521,78.87Z"/><path class="cls-1" d="M569.08,10.19V77.92H552.91V10.19Zm36,20.17L582.3,54.71l-3,.86-13.6,15.21-.09-16.55,21.59-23.87ZM584.77,44.62l21.4,33.3H588.29L574.21,54.14Z"/><path class="cls-1" d="M638.22,47.76a7.34,7.34,0,0,0-1.85-5.28,6.59,6.59,0,0,0-5-1.94A9.14,9.14,0,0,0,626,42.1q-2.24,1.57-3.09,5.57l-13.7-3.24a17,17,0,0,1,7-10.93q5.71-4.09,16.08-4.09a30.77,30.77,0,0,1,11.84,2,16,16,0,0,1,7.52,6.09,18,18,0,0,1,2.61,9.94v17.4q0,3.72,3.33,3.72a8.09,8.09,0,0,0,2.76-.39l-1,9.23a16.27,16.27,0,0,1-6.94,1.33,16.8,16.8,0,0,1-6.56-1.19A9.64,9.64,0,0,1,641.46,74a10.83,10.83,0,0,1-1.62-6.14v-.57l1.81-.66a10,10,0,0,1-2.43,6.85A14.47,14.47,0,0,1,633,77.54a24.65,24.65,0,0,1-8,1.33,21.82,21.82,0,0,1-8.47-1.52,12.24,12.24,0,0,1-5.56-4.43,12.56,12.56,0,0,1-2-7.18A12.12,12.12,0,0,1,612,57.23q3.09-3.37,9.75-4.71l18-3.71-.1,8.56-9.13,1.9a10,10,0,0,0-4.23,1.67,3.93,3.93,0,0,0-1.38,3.28,3.54,3.54,0,0,0,1.52,3.14,6.19,6.19,0,0,0,3.61,1,10,10,0,0,0,3.1-.47,7.57,7.57,0,0,0,2.61-1.47,7.16,7.16,0,0,0,1.81-2.53,9,9,0,0,0,.66-3.61Z"/><path class="cls-2" d="M114.28,14.67c-.86-.17-1.76,0-2.64-.12-1.13-.15-1.35.27-1.35,1.37q.06,25.18,0,50.39a12.58,12.58,0,0,1-.4,3.76A10.65,10.65,0,0,1,99.85,78c-3,.16-5.95.23-8.91.68a46.2,46.2,0,0,0-16.75,5.51A29.68,29.68,0,0,0,68,88.87,69.1,69.1,0,0,1,80.39,87a112.57,112.57,0,0,1,31.11,2.55c3.31.71,4.68,0,6.08-3V17.81A4.54,4.54,0,0,0,114.28,14.67Z"/><path class="cls-3" d="M36.18,2.87A58,58,0,0,0,18.94,0c-3.38-.1-5.15,1.51-5.15,4.91V66.59c0,3.22,1.6,4.9,4.83,4.94a71.47,71.47,0,0,1,9.25.72A52.25,52.25,0,0,1,45.76,78a40.63,40.63,0,0,1,9.69,7.37,3.39,3.39,0,0,0,.09-.52q0-32.54,0-65.1a5.38,5.38,0,0,0-.94-3A34.77,34.77,0,0,0,36.18,2.87Z"/><path class="cls-4" d="M99.07,71.53c3.08,0,4.72-1.74,4.72-4.81,0-4.49,0-9,0-13.44q0-24.28,0-48.58c0-2.94-1.77-4.77-4.56-4.7A64.6,64.6,0,0,0,87.15,1.28C78.33,3.21,70.61,7,64.8,14.2A11.36,11.36,0,0,0,62,21.8c.12,20.7.06,41.41.06,62.12V85.4c.46-.42.71-.65,1-.89a41.57,41.57,0,0,1,14.21-9A62.12,62.12,0,0,1,99.07,71.53Z"/><path class="cls-5" d="M29.36,79.12A72.36,72.36,0,0,0,17.62,78a10.28,10.28,0,0,1-6.05-2.16,11,11,0,0,1-4.3-9.29q0-24.74,0-49.48c0-2.5,0-2.5-2.5-2.49C1.62,14.59,0,16.2,0,19.39V84.94c0,3.6,2.27,5.44,5.76,4.66a116,116,0,0,1,23-2.83,91.4,91.4,0,0,1,20.66,1.8c-.66-.56-1.31-1.14-2-1.68C42.06,82.7,35.91,80.43,29.36,79.12Z"/></svg>