<svg id="Layer_1" data-name="Layer 1" xmlns="http://www.w3.org/2000/svg" viewBox="0 0 47.59 40"><defs><style>.cls-1{fill:#f9f9f9;}</style></defs><title>arrozsgdffdsgsdgwArtboard 4 copy 5</title><path class="cls-1" d="M20.7.29H38.48a2.38,2.38,0,0,1,2.64,2.64v14.7c0,.68,0,.68-.67.49a8.93,8.93,0,0,0-2-.39c-.49,0-.58-.24-.57-.67,0-3.42,0-6.83,0-10.25V4.66c0-.91-.25-1.16-1.17-1.16H4.7c-1,0-1.22.23-1.22,1.21V28.87c0,1,.23,1.22,1.21,1.22H24.78c.52,0,.76.09.79.67a8,8,0,0,0,.45,2.1c.11.32,0,.47-.32.44h-.35c-7.46,0-14.93,0-22.39,0a2.56,2.56,0,0,1-2.7-2.7C.3,21.4.28,12.19.28,3A2.38,2.38,0,0,1,3,.29Z"/><path class="cls-1" d="M15.22,28.59c-3.21,0-6.41,0-9.61,0C5.13,28.6,5,28.48,5,28c0-2.2,0-4.41,0-6.61a1.18,1.18,0,0,1,.32-.84c1.42-1.62,2.81-3.27,4.24-4.88a2.49,2.49,0,0,1,4,.1c1.18,1.43,2.36,2.88,3.51,4.34.26.32.4.31.66,0,2.32-2.83,4.66-5.64,7-8.46a2.52,2.52,0,0,1,4.18,0c1.69,2,3.35,4.06,5,6.08.35.42,0,.46-.24.56A11.54,11.54,0,0,0,26,25.88,8.86,8.86,0,0,0,25.55,28c0,.46-.21.57-.63.57C21.68,28.58,18.45,28.59,15.22,28.59Z"/><path class="cls-1" d="M26.94,29.36A10.23,10.23,0,1,1,37.21,39.57,10.19,10.19,0,0,1,26.94,29.36Zm7.91,3.19c0,.93,0,1.86,0,2.79,0,.73.29,1,1,1h2.4c1,0,1.22-.23,1.22-1.21,0-1.78,0-3.56,0-5.34,0-.38.11-.54.5-.51a7.21,7.21,0,0,0,.93,0c.79,0,1.13-.64.68-1.28-1.24-1.77-2.5-3.52-3.76-5.26a.76.76,0,0,0-1.32,0q-1.92,2.65-3.81,5.35a.73.73,0,0,0,.61,1.21,4.14,4.14,0,0,0,.93,0c.42,0,.63.07.61.55C34.82,30.72,34.85,31.63,34.85,32.55Z"/><path class="cls-1" d="M17.69,12.53a3.18,3.18,0,1,1,3.22-3.19A3.18,3.18,0,0,1,17.69,12.53Z"/></svg>